PathFileType	4	(X/Y/Z)	pose_F01_0-96.trc
DataRate	CameraRate	NumFrames	NumMarkers	Units	OrigDataRate	OrigDataStartFrame	OrigNumFrames
30	30	7	21	m	30	24	96
Frame#	Time	CHip			RHip			RKnee			RAnkle			RBigToe			RSmallToe			RHeel			LHip			LKnee			LAnkle			LBigToe			LSmallToe			LHeel			Neck			Nose			RShoulder			RElbow			RWrist			LShoulder			LElbow			LWrist			
		X1	Y1	Z1	X2	Y2	Z2	X3	Y3	Z3	X4	Y4	Z4	X5	Y5	Z5	X6	Y6	Z6	X7	Y7	Z7	X8	Y8	Z8	X9	Y9	Z9	X10	Y10	Z10	X11	Y11	Z11	X12	Y12	Z12	X13	Y13	Z13	X14	Y14	Z14	X15	Y15	Z15	X16	Y16	Z16	X17	Y17	Z17	X18	Y18	Z18	X19	Y19	Z19	X20	Y20	Z20	X21	Y21	Z21	
24	0.8	-0.22046386352495898	1.845319194102485	-0.649655938598342	-0.2306221464084183	1.8422727389272175	-0.5878458718960164	-0.23549646407757002	1.7084199930792818	-0.5637619710346617	-0.2248880470088608	1.5910115441145198	-0.5662411334513711	-0.2570024575587692	1.5577967446703342	-0.5297744888628918	-0.250060043913292	1.5635653893645909	-0.5107454736517678	-0.22622253944811543	1.5827065890461443	-0.5768356618069362	-0.20920489131276676	1.845716116473524	-0.7105413268320956	-0.22524791515527096	1.7112214560844303	-0.6935803059814064	-0.23609519558171538	1.5784458130109167	-0.6852148888722446	-0.2689219005124355	1.5434942982035706	-0.6535755274859001	-0.2625482410671016	1.5453006265468014	-0.6846117790405672	-0.2291936140996943	1.568118642229412	-0.6862585203269984	-0.20889874245676185	1.9969505115589548	-0.6761990635098533	-0.25530185628706625	2.0492725951427815	-0.6452370507931525	-0.21965825215673257	1.9911874865923058	-0.5869781065701982	-0.24294424245880666	1.9198106726452782	-0.5130600050007679	-1.6546343335445237	1.8775299456750132	1.0046241276740873	-0.1946281321168	2.0018110896702335	-0.7586140038329097	-1.227395485409657	1.8345959715818472	0.28663951910458285	-1.323416124742376	1.8693101460792958	0.43795697528190775
25	0.8333333333333334	-0.22046386352495898	1.845319194102485	-0.649655938598342	-0.2306221464084183	1.8422727389272175	-0.5878458718960164	-0.23549646407757002	1.7084199930792818	-0.5637619710346617	-0.2248880470088608	1.5910115441145198	-0.5662411334513711	-0.2570024575587692	1.5577967446703342	-0.5297744888628918	-0.250060043913292	1.5635653893645909	-0.5107454736517678	-0.22622253944811543	1.5827065890461443	-0.5768356618069362	-0.20920489131276676	1.845716116473524	-0.7105413268320956	-0.22524791515527096	1.7112214560844303	-0.6935803059814064	-0.23609519558171538	1.5784458130109167	-0.6852148888722446	-0.2689219005124355	1.5434942982035706	-0.6535755274859001	-0.2625482410671016	1.5453006265468014	-0.6846117790405672	-0.2291936140996943	1.568118642229412	-0.6862585203269984	-0.20889874245676185	1.9969505115589548	-0.6761990635098533	-0.25530185628706625	2.0492725951427815	-0.6452370507931525	-0.21965825215673257	1.9911874865923058	-0.5869781065701982	-0.24294424245880666	1.9198106726452782	-0.5130600050007679	-1.6414310100054372	1.88077993197117	0.9780613255516697	-0.1946281321168	2.0018110896702335	-0.7586140038329097	-1.223481979686455	1.8363887045411929	0.27822149074798785	-1.3142417131960382	1.8673266119851526	0.4231076422497922
26	0.8666666666666667	-0.22046386352495898	1.845319194102485	-0.649655938598342	-0.2306221464084183	1.8422727389272175	-0.5878458718960164	-0.23549646407757002	1.7084199930792818	-0.5637619710346617	-0.2248880470088608	1.5910115441145198	-0.5662411334513711	-0.2570024575587692	1.5577967446703342	-0.5297744888628918	-0.250060043913292	1.5635653893645909	-0.5107454736517678	-0.22622253944811543	1.5827065890461443	-0.5768356618069362	-0.20920489131276676	1.845716116473524	-0.7105413268320956	-0.22524791515527096	1.7112214560844303	-0.6935803059814064	-0.23609519558171538	1.5784458130109167	-0.6852148888722446	-0.2689219005124355	1.5434942982035706	-0.6535755274859001	-0.2625482410671016	1.5453006265468014	-0.6846117790405672	-0.2291936140996943	1.568118642229412	-0.6862585203269984	-0.20889874245676185	1.9969505115589548	-0.6761990635098533	-0.25530185628706625	2.0492725951427815	-0.6452370507931525	-0.21965825215673257	1.9911874865923058	-0.5869781065701982	-0.24294424245880666	1.9198106726452782	-0.5130600050007679	-1.6282276864663507	1.8840299182673266	0.9514985234292522	-0.1946281321168	2.0018110896702335	-0.7586140038329097	-1.2323199007256538	1.8388753607330337	0.29255773760629367	-1.3050673016497005	1.8653430778910094	0.40825830921767664
27	0.9	-0.22046386352495898	1.845319194102485	-0.649655938598342	-0.2306221464084183	1.8422727389272175	-0.5878458718960164	-0.23549646407757002	1.7084199930792818	-0.5637619710346617	-0.2248880470088608	1.5910115441145198	-0.5662411334513711	-0.2570024575587692	1.5577967446703342	-0.5297744888628918	-0.250060043913292	1.5635653893645909	-0.5107454736517678	-0.22622253944811543	1.5827065890461443	-0.5768356618069362	-0.20920489131276676	1.845716116473524	-0.7105413268320956	-0.22524791515527096	1.7112214560844303	-0.6935803059814064	-0.23609519558171538	1.5784458130109167	-0.6852148888722446	-0.2689219005124355	1.5434942982035706	-0.6535755274859001	-0.2625482410671016	1.5453006265468014	-0.6846117790405672	-0.2291936140996943	1.568118642229412	-0.6862585203269984	-0.20889874245676185	1.9969505115589548	-0.6761990635098533	-0.25530185628706625	2.0492725951427815	-0.6452370507931525	-0.21965825215673257	1.9911874865923058	-0.5869781065701982	-0.24294424245880666	1.9198106726452782	-0.5130600050007679	-1.6636125157607355	1.8794311674122044	1.0146960405483774	-0.1946281321168	2.0018110896702335	-0.7586140038329097	-1.2318210743180928	1.8396735151062464	0.2918085675099497	-1.2958928901033628	1.8633595437968662	0.3934089761855611
28	0.9333333333333333	-0.22046386352495898	1.845319194102485	-0.649655938598342	-0.2306221464084183	1.8422727389272175	-0.5878458718960164	-0.23549646407757002	1.7084199930792818	-0.5637619710346617	-0.2248880470088608	1.5910115441145198	-0.5662411334513711	-0.2570024575587692	1.5577967446703342	-0.5297744888628918	-0.250060043913292	1.5635653893645909	-0.5107454736517678	-0.22622253944811543	1.5827065890461443	-0.5768356618069362	-0.20920489131276676	1.845716116473524	-0.7105413268320956	-0.22524791515527096	1.7112214560844303	-0.6935803059814064	-0.23609519558171538	1.5784458130109167	-0.6852148888722446	-0.2689219005124355	1.5434942982035706	-0.6535755274859001	-0.2625482410671016	1.5453006265468014	-0.6846117790405672	-0.2291936140996943	1.568118642229412	-0.6862585203269984	-0.20889874245676185	1.9969505115589548	-0.6761990635098533	-0.25530185628706625	2.0492725951427815	-0.6452370507931525	-0.21965825215673257	1.9911874865923058	-0.5869781065701982	-0.24294424245880666	1.9198106726452782	-0.5130600050007679	-1.6763725447055648	1.875606456644459	1.0376798837664176	-0.1946281321168	2.0018110896702335	-0.7586140038329097	-1.2318243706350434	1.8377683601252446	0.29089620029229324	-1.2867184785570251	1.861376009702723	0.37855964315344554
29	0.9666666666666667	-0.22046386352495898	1.845319194102485	-0.649655938598342	-0.2306221464084183	1.8422727389272175	-0.5878458718960164	-0.23549646407757002	1.7084199930792818	-0.5637619710346617	-0.2248880470088608	1.5910115441145198	-0.5662411334513711	-0.2570024575587692	1.5577967446703342	-0.5297744888628918	-0.250060043913292	1.5635653893645909	-0.5107454736517678	-0.22622253944811543	1.5827065890461443	-0.5768356618069362	-0.20920489131276676	1.845716116473524	-0.7105413268320956	-0.22524791515527096	1.7112214560844303	-0.6935803059814064	-0.23609519558171538	1.5784458130109167	-0.6852148888722446	-0.2689219005124355	1.5434942982035706	-0.6535755274859001	-0.2625482410671016	1.5453006265468014	-0.6846117790405672	-0.2291936140996943	1.568118642229412	-0.6862585203269984	-0.20889874245676185	1.9969505115589548	-0.6761990635098533	-0.25530185628706625	2.0492725951427815	-0.6452370507931525	-0.21965825215673257	1.9911874865923058	-0.5869781065701982	-0.24294424245880666	1.9198106726452782	-0.5130600050007679	-1.689132573650394	1.8717817458767136	1.0606637269844579	-0.1946281321168	2.0018110896702335	-0.7586140038329097	-1.2519998790557807	1.8356383952267719	0.3154030053808686	-1.2775440670106875	1.85939247560858	0.36371031012133
30	1.0	-0.22046386352495898	1.845319194102485	-0.649655938598342	-0.2306221464084183	1.8422727389272175	-0.5878458718960164	-0.23549646407757002	1.7084199930792818	-0.5637619710346617	-0.2248880470088608	1.5910115441145198	-0.5662411334513711	-0.2570024575587692	1.5577967446703342	-0.5297744888628918	-0.250060043913292	1.5635653893645909	-0.5107454736517678	-0.22622253944811543	1.5827065890461443	-0.5768356618069362	-0.20920489131276676	1.845716116473524	-0.7105413268320956	-0.22524791515527096	1.7112214560844303	-0.6935803059814064	-0.23609519558171538	1.5784458130109167	-0.6852148888722446	-0.2689219005124355	1.5434942982035706	-0.6535755274859001	-0.2625482410671016	1.5453006265468014	-0.6846117790405672	-0.2291936140996943	1.568118642229412	-0.6862585203269984	-0.20889874245676185	1.9969505115589548	-0.6761990635098533	-0.25530185628706625	2.0492725951427815	-0.6452370507931525	-0.21965825215673257	1.9911874865923058	-0.5869781065701982	-0.24294424245880666	1.9198106726452782	-0.5130600050007679	-1.689132573650394	1.8717817458767136	1.0606637269844579	-0.1946281321168	2.0018110896702335	-0.7586140038329097	-1.275565747574397	1.8361344858606432	0.3456878682959415	-1.2683696554643498	1.8574089415144368	0.34886097708921443
